<?xml version="1.0" encoding="utf-8"?>
<!-- Generator: Adobe Illustrator 25.0.1, SVG Export Plug-In . SVG Version: 6.00 Build 0)  -->
<svg version="1.1" id="Layer_1" xmlns="http://www.w3.org/2000/svg" xmlns:xlink="http://www.w3.org/1999/xlink" x="0px" y="0px"
	 viewBox="0 0 54 54" style="enable-background:new 0 0 54 54;" xml:space="preserve">
<style type="text/css">
	.st0{fill:#FF5555;}
	.st1{fill:#EF8484;}
	.st2{fill:#50CCC0;}
	.st3{fill:#9164FF;}
	.st4{fill:#F2F2F2;stroke:#190AFF;stroke-width:2;stroke-linecap:round;stroke-linejoin:round;stroke-miterlimit:10;}
	.st5{fill:none;stroke:#CCCCCC;stroke-miterlimit:10;}
	.st6{fill:#FFFFFF;}
	.st7{fill:none;stroke:#000000;stroke-width:5.3571;stroke-linecap:round;stroke-miterlimit:10;}
	.st8{fill:none;stroke:#000000;stroke-width:6;stroke-miterlimit:10;}
	.st9{fill:none;}
	.st10{fill:none;stroke:#000000;stroke-width:4.0487;stroke-miterlimit:10;}
	.st11{fill:none;stroke:#000000;stroke-width:4.0487;stroke-linecap:round;stroke-miterlimit:10;}
	.st12{fill:none;stroke:#000000;stroke-width:4.0487;stroke-linecap:round;stroke-linejoin:round;stroke-miterlimit:10;}
	.st13{fill:none;stroke:#000000;stroke-width:5;stroke-miterlimit:10;}
	.st14{fill:none;stroke:#000000;stroke-width:6;stroke-linecap:round;stroke-miterlimit:10;}
	.st15{fill:url(#Ellipse_136_1_);}
	.st16{fill:none;stroke:#000000;stroke-width:4.2115;stroke-miterlimit:10;}
	.st17{fill:none;stroke:#000000;stroke-width:4.2115;stroke-linecap:round;stroke-linejoin:round;stroke-miterlimit:10;}
	.st18{fill:url(#SVGID_1_);}
	.st19{fill:url(#SVGID_2_);}
	.st20{fill:url(#SVGID_3_);}
	.st21{fill:url(#SVGID_4_);}
	.st22{fill:url(#SVGID_5_);}
	.st23{fill:url(#SVGID_6_);}
	.st24{fill:url(#SVGID_7_);}
	.st25{fill:#333333;}
	.st26{fill:url(#SVGID_8_);}
	.st27{fill:url(#SVGID_9_);}
	.st28{fill:url(#SVGID_10_);}
	.st29{fill:url(#SVGID_11_);}
	.st30{fill:url(#SVGID_12_);}
	.st31{fill:#FFFFFF;stroke:#000000;stroke-width:2;stroke-linecap:round;stroke-linejoin:round;stroke-miterlimit:10;}
	.st32{fill:none;stroke:#000000;stroke-width:2;stroke-linecap:round;stroke-linejoin:round;stroke-miterlimit:10;}
	.st33{fill:none;stroke:#000000;stroke-width:2;stroke-miterlimit:10;}
	.st34{fill:none;stroke:#000000;stroke-width:2;stroke-linecap:round;stroke-miterlimit:10;}
	.st35{fill:none;stroke:#000000;stroke-width:3;stroke-linecap:round;stroke-miterlimit:10;}
	.st36{fill:none;stroke:#000000;stroke-width:3;stroke-miterlimit:10;}
	.st37{fill:none;stroke:#000000;stroke-width:3;stroke-linejoin:round;stroke-miterlimit:10;}
	.st38{fill:none;stroke:#000000;stroke-width:3;stroke-linecap:round;stroke-linejoin:round;stroke-miterlimit:10;}
	.st39{fill:none;stroke:#000000;stroke-width:1.823;stroke-linecap:round;stroke-miterlimit:10;}
	.st40{fill:#9E6C6C;}
	.st41{fill:none;stroke:#F29191;stroke-width:2;stroke-linecap:round;stroke-linejoin:round;stroke-miterlimit:10;}
	.st42{fill:none;stroke:#F2A0A0;stroke-width:2;stroke-miterlimit:10;}
	.st43{fill:#F2A0A0;}
	.st44{fill:none;stroke:#F2A0A0;stroke-width:2;stroke-linecap:round;stroke-miterlimit:10;}
	.st45{fill:url(#SVGID_13_);}
	.st46{fill:url(#SVGID_14_);}
	.st47{fill:url(#SVGID_15_);}
	.st48{fill:url(#SVGID_16_);}
	.st49{fill:url(#SVGID_17_);}
	.st50{fill:url(#SVGID_18_);}
	.st51{fill:url(#SVGID_19_);}
	.st52{fill:url(#SVGID_20_);}
	.st53{fill:url(#SVGID_21_);}
	.st54{fill:url(#SVGID_22_);}
	.st55{fill:url(#SVGID_23_);}
	.st56{fill:url(#SVGID_24_);}
	.st57{fill:url(#SVGID_25_);}
	.st58{fill:url(#SVGID_26_);}
	.st59{fill:url(#SVGID_27_);}
	.st60{fill:url(#SVGID_28_);}
	.st61{fill:url(#SVGID_29_);}
	.st62{fill:url(#SVGID_30_);}
	.st63{fill:url(#SVGID_31_);}
	.st64{fill:url(#SVGID_32_);}
	.st65{fill:url(#SVGID_33_);}
	.st66{fill:url(#SVGID_34_);}
	.st67{fill:url(#SVGID_35_);}
	.st68{fill:url(#SVGID_36_);}
	.st69{fill:url(#SVGID_37_);}
	.st70{fill:url(#SVGID_38_);}
	.st71{fill:url(#SVGID_39_);}
	.st72{fill:url(#SVGID_40_);}
	.st73{fill:none;stroke:#000000;stroke-miterlimit:10;}
	.st74{fill:none;stroke:#000000;stroke-linecap:round;stroke-miterlimit:10;}
	.st75{fill:none;stroke:#000000;stroke-width:4;stroke-miterlimit:10;}
	.st76{fill:none;stroke:#000000;stroke-width:4;stroke-linecap:round;stroke-miterlimit:10;}
	.st77{fill:url(#SVGID_41_);}
	.st78{fill:url(#SVGID_42_);}
	.st79{fill:url(#SVGID_43_);}
	.st80{fill:url(#SVGID_44_);}
	.st81{fill:url(#SVGID_45_);}
	.st82{fill:url(#SVGID_46_);}
	.st83{fill:url(#SVGID_47_);}
	.st84{fill:url(#SVGID_48_);}
	.st85{fill:url(#SVGID_49_);}
	.st86{fill:url(#SVGID_50_);}
	.st87{fill:url(#SVGID_51_);}
	.st88{fill:url(#SVGID_52_);}
	.st89{fill:url(#SVGID_53_);}
	.st90{fill:none;stroke:#000000;stroke-width:4;stroke-linecap:round;stroke-linejoin:round;stroke-miterlimit:10;}
	.st91{fill:url(#SVGID_54_);}
	.st92{fill:url(#SVGID_55_);}
	.st93{fill:url(#SVGID_56_);}
	.st94{fill:url(#SVGID_57_);}
	.st95{fill:url(#SVGID_58_);}
	.st96{fill:url(#SVGID_59_);}
	.st97{fill:url(#SVGID_60_);}
	.st98{fill:url(#SVGID_61_);}
	.st99{fill:url(#SVGID_62_);}
	.st100{fill:url(#SVGID_63_);}
	.st101{fill:url(#SVGID_64_);}
	.st102{fill:url(#SVGID_65_);}
	.st103{fill:url(#SVGID_66_);}
	.st104{fill:none;stroke:#000000;stroke-linecap:round;stroke-linejoin:round;stroke-miterlimit:10;}
	.st105{fill:url(#SVGID_67_);}
	.st106{fill:url(#SVGID_68_);}
	.st107{fill:url(#SVGID_69_);}
	.st108{fill:url(#SVGID_70_);}
	.st109{fill:url(#SVGID_71_);}
	.st110{fill:url(#SVGID_72_);}
	.st111{fill:url(#SVGID_73_);}
	.st112{fill:url(#SVGID_74_);}
	.st113{fill:url(#SVGID_75_);}
	.st114{fill:url(#SVGID_76_);}
	.st115{fill:url(#SVGID_77_);}
	.st116{fill:url(#SVGID_78_);}
	.st117{fill:url(#SVGID_79_);}
	.st118{fill:url(#SVGID_80_);}
	.st119{fill:url(#SVGID_81_);}
	.st120{fill:url(#SVGID_82_);}
	.st121{fill:url(#SVGID_83_);}
	.st122{fill:url(#SVGID_84_);}
	.st123{fill:url(#SVGID_85_);}
	.st124{fill:url(#SVGID_86_);}
	.st125{fill:url(#SVGID_87_);}
	.st126{fill:url(#SVGID_88_);}
	.st127{fill:url(#SVGID_89_);}
	.st128{fill:#D13F3F;}
	.st129{fill:none;stroke:#000000;stroke-width:1.5;stroke-miterlimit:10;}
	.st130{fill:#6AB900;}
	.st131{fill:none;stroke:#000000;stroke-width:1.5;stroke-linecap:round;stroke-miterlimit:10;}
	.st132{fill:#C66F6F;}
	.st133{fill:url(#SVGID_90_);}
	.st134{fill:url(#SVGID_91_);}
	.st135{fill:url(#SVGID_92_);}
	.st136{fill:url(#SVGID_93_);}
	.st137{fill:url(#SVGID_94_);}
	.st138{fill:url(#SVGID_95_);}
	.st139{fill:url(#SVGID_96_);}
	.st140{fill:url(#SVGID_97_);}
	.st141{fill:url(#SVGID_98_);}
	.st142{fill:url(#SVGID_99_);}
	.st143{fill:url(#SVGID_100_);}
	.st144{fill:url(#SVGID_101_);}
	.st145{fill:url(#SVGID_102_);}
	.st146{fill:url(#SVGID_103_);}
	.st147{fill:url(#SVGID_104_);}
	.st148{fill:url(#SVGID_105_);}
	.st149{fill:url(#SVGID_106_);}
	.st150{fill:url(#SVGID_107_);}
	.st151{fill:url(#SVGID_108_);}
	.st152{fill:url(#SVGID_109_);}
	.st153{fill:url(#SVGID_110_);}
	.st154{fill:url(#SVGID_111_);}
	.st155{fill:url(#SVGID_112_);}
	.st156{fill:url(#SVGID_113_);}
	.st157{fill:url(#SVGID_114_);}
	.st158{fill:url(#SVGID_115_);}
	.st159{fill:url(#SVGID_116_);}
	.st160{fill:url(#SVGID_117_);}
	.st161{fill:url(#SVGID_118_);}
	.st162{fill:url(#SVGID_119_);}
	.st163{fill:none;stroke:#FFBBBB;stroke-width:0.25;stroke-miterlimit:10;}
	.st164{fill:none;stroke:#000000;stroke-width:4;stroke-linejoin:round;stroke-miterlimit:10;}
	.st165{fill:none;stroke:#FFFFFF;stroke-width:4;stroke-miterlimit:10;}
	.st166{fill:none;stroke:#55F4F0;stroke-width:4;stroke-linecap:round;stroke-miterlimit:10;}
	.st167{fill:none;stroke:#FFFFFF;stroke-width:4;stroke-linecap:round;stroke-miterlimit:10;}
	.st168{fill:none;stroke:#FFFFFF;stroke-width:4;stroke-linejoin:round;stroke-miterlimit:10;}
	.st169{fill:none;stroke:#FFFFFF;stroke-width:4;stroke-linecap:round;stroke-linejoin:round;stroke-miterlimit:10;}
	.st170{fill:none;stroke:#55F4F0;stroke-width:4;stroke-linecap:round;stroke-linejoin:round;stroke-miterlimit:10;}
	.st171{fill:#9B3737;}
	.st172{fill:url(#SVGID_120_);}
	.st173{fill:url(#SVGID_121_);}
	.st174{fill:url(#SVGID_122_);}
	.st175{fill:url(#SVGID_123_);}
	.st176{fill:url(#SVGID_124_);}
	.st177{fill:url(#SVGID_125_);}
	.st178{fill:url(#SVGID_126_);}
	.st179{fill:url(#SVGID_127_);}
	.st180{fill:url(#SVGID_128_);}
	.st181{fill:url(#SVGID_129_);}
	.st182{fill:url(#SVGID_130_);}
	.st183{fill:url(#SVGID_131_);}
	.st184{fill:url(#SVGID_132_);}
	.st185{fill:url(#SVGID_133_);}
	.st186{fill:url(#SVGID_134_);}
	.st187{fill:url(#SVGID_135_);}
	.st188{fill:url(#SVGID_136_);}
	.st189{fill:none;stroke:#D36E6E;stroke-width:4;stroke-linecap:round;stroke-linejoin:round;stroke-miterlimit:10;}
	.st190{fill:url(#SVGID_137_);}
	.st191{fill:url(#SVGID_138_);}
	.st192{fill:url(#SVGID_139_);}
	.st193{fill:url(#SVGID_140_);}
	.st194{fill:url(#SVGID_141_);}
	.st195{fill:url(#SVGID_142_);}
	.st196{fill:#F46464;}
	.st197{fill:none;stroke:#F46464;stroke-width:4;stroke-linecap:round;stroke-linejoin:round;stroke-miterlimit:10;}
	.st198{fill:url(#SVGID_143_);}
	.st199{fill:url(#SVGID_144_);}
	.st200{fill:url(#SVGID_145_);}
	.st201{fill:url(#SVGID_146_);}
	.st202{fill:url(#SVGID_147_);}
	.st203{fill:url(#SVGID_148_);}
	.st204{fill:url(#SVGID_149_);}
	.st205{fill:url(#SVGID_150_);}
	.st206{fill:url(#SVGID_151_);}
	.st207{fill:url(#SVGID_152_);}
	.st208{fill:url(#SVGID_153_);}
	.st209{fill:url(#SVGID_154_);}
	.st210{fill:url(#SVGID_155_);}
	.st211{fill:none;stroke:#F46464;stroke-linecap:round;stroke-linejoin:round;stroke-miterlimit:10;}
	.st212{fill:url(#SVGID_156_);}
	.st213{fill:url(#SVGID_157_);}
	.st214{fill:url(#SVGID_158_);}
	.st215{fill:url(#SVGID_159_);}
	.st216{fill:url(#SVGID_160_);}
	.st217{fill:url(#SVGID_161_);}
	.st218{fill:url(#SVGID_162_);}
	.st219{fill:url(#SVGID_163_);}
	.st220{fill:url(#SVGID_164_);}
	.st221{fill:url(#SVGID_165_);}
	.st222{fill:url(#SVGID_166_);}
	.st223{fill:url(#SVGID_167_);}
	.st224{fill:url(#SVGID_168_);}
	.st225{fill:url(#SVGID_169_);}
	.st226{fill:url(#SVGID_170_);}
	.st227{fill:url(#SVGID_171_);}
	.st228{fill:url(#SVGID_172_);}
	.st229{fill:url(#SVGID_173_);}
	.st230{fill:url(#SVGID_174_);}
	.st231{fill:url(#SVGID_175_);}
	.st232{fill:url(#SVGID_176_);}
	.st233{fill:url(#SVGID_177_);}
	.st234{fill:url(#SVGID_178_);}
	.st235{fill:url(#SVGID_179_);}
	.st236{fill:url(#SVGID_180_);}
	.st237{fill:url(#SVGID_181_);}
	.st238{fill:url(#SVGID_182_);}
	.st239{fill:url(#SVGID_183_);}
	.st240{fill:url(#SVGID_184_);}
	.st241{fill:url(#SVGID_185_);}
	.st242{fill:url(#SVGID_186_);}
	.st243{fill:url(#SVGID_187_);}
	.st244{fill:url(#SVGID_188_);}
	.st245{fill:url(#SVGID_189_);}
	.st246{fill:none;stroke:#FF6666;stroke-width:4;stroke-linecap:round;stroke-linejoin:round;stroke-miterlimit:10;}
	.st247{fill:url(#SVGID_190_);}
	.st248{fill:url(#SVGID_191_);}
	.st249{fill:url(#SVGID_192_);}
	.st250{fill:url(#SVGID_193_);}
	.st251{fill:url(#SVGID_194_);}
	.st252{fill:url(#SVGID_195_);}
	.st253{fill:#020202;}
	.st254{fill:none;stroke:#190AFF;stroke-width:4;stroke-linecap:round;stroke-miterlimit:10;}
	.st255{fill:none;stroke:#190AFF;stroke-width:4;stroke-miterlimit:10;}
	.st256{fill:#190AFF;}
	.st257{fill:none;stroke:#358F8B;stroke-width:4;stroke-linecap:round;stroke-miterlimit:10;}
	.st258{fill:#75E0DD;}
	.st259{fill:#C5E274;}
	.st260{fill:#F2F2F2;stroke:#190AFF;stroke-width:2;stroke-linecap:round;stroke-miterlimit:10;}
	.st261{fill:none;stroke:#190AFF;stroke-width:2;stroke-linecap:round;stroke-miterlimit:10;}
	.st262{fill:none;stroke:#190AFF;stroke-width:2;stroke-miterlimit:10;}
	.st263{fill:none;stroke:#FFFFFF;stroke-width:2;stroke-linecap:round;stroke-miterlimit:10;}
	.st264{fill:none;stroke:#358F8B;stroke-width:2;stroke-linecap:round;stroke-miterlimit:10;}
	.st265{fill:#F2F2F2;}
	.st266{fill:#358F8B;}
	.st267{fill:url(#SVGID_196_);}
	.st268{fill:url(#SVGID_197_);}
	.st269{fill:url(#SVGID_198_);}
	.st270{fill:url(#SVGID_199_);}
	.st271{fill:url(#SVGID_200_);}
	.st272{fill:url(#SVGID_201_);}
	.st273{fill:url(#SVGID_202_);}
	.st274{fill:url(#SVGID_203_);}
	.st275{fill:url(#SVGID_204_);}
	.st276{fill:url(#SVGID_205_);}
	.st277{fill:url(#SVGID_206_);}
	.st278{fill:url(#SVGID_207_);}
	.st279{fill:url(#SVGID_208_);}
	.st280{fill:url(#SVGID_209_);}
	.st281{fill:url(#SVGID_210_);}
	.st282{fill:url(#SVGID_211_);}
	.st283{fill:url(#SVGID_212_);}
	.st284{fill:url(#SVGID_213_);}
	.st285{fill:url(#SVGID_214_);}
	.st286{fill:url(#SVGID_215_);}
	.st287{fill:url(#SVGID_216_);}
	.st288{fill:url(#SVGID_217_);}
	.st289{fill:url(#SVGID_218_);}
	.st290{fill:none;stroke:#190AFF;stroke-width:4;stroke-linecap:round;stroke-linejoin:round;stroke-miterlimit:10;}
	.st291{fill:none;stroke:#190AFF;stroke-width:4;stroke-linejoin:round;stroke-miterlimit:10;}
	.st292{opacity:0.54;}
	.st293{clip-path:url(#SVGID_220_);}
	.st294{clip-path:url(#SVGID_222_);}
	.st295{clip-path:url(#SVGID_224_);}
	.st296{clip-path:url(#SVGID_226_);}
	.st297{clip-path:url(#SVGID_228_);}
	.st298{clip-path:url(#SVGID_230_);}
	.st299{clip-path:url(#SVGID_232_);}
	.st300{clip-path:url(#SVGID_234_);fill:url(#SVGID_235_);}
	.st301{clip-path:url(#SVGID_234_);fill:url(#SVGID_236_);}
	.st302{clip-path:url(#SVGID_234_);fill:none;stroke:#FFFFFF;stroke-linecap:round;stroke-miterlimit:10;}
	.st303{clip-path:url(#SVGID_234_);fill:url(#SVGID_237_);}
	.st304{clip-path:url(#SVGID_234_);fill:url(#SVGID_238_);}
	.st305{clip-path:url(#SVGID_240_);}
	.st306{fill:none;stroke:#FFFFFF;stroke-linecap:round;stroke-miterlimit:10;}
	.st307{fill:none;stroke:#FFFFFF;stroke-miterlimit:10;}
	.st308{clip-path:url(#SVGID_242_);fill:url(#SVGID_243_);}
	.st309{clip-path:url(#SVGID_242_);fill:url(#SVGID_244_);}
	.st310{clip-path:url(#SVGID_242_);fill:none;stroke:#FFFFFF;stroke-linecap:round;stroke-miterlimit:10;}
	.st311{clip-path:url(#SVGID_242_);fill:url(#SVGID_245_);}
	.st312{clip-path:url(#SVGID_242_);fill:url(#SVGID_246_);}
	.st313{clip-path:url(#SVGID_248_);}
	.st314{clip-path:url(#SVGID_250_);}
	.st315{clip-path:url(#SVGID_252_);}
	.st316{clip-path:url(#SVGID_254_);}
	.st317{clip-path:url(#SVGID_256_);}
	.st318{clip-path:url(#SVGID_258_);}
	.st319{clip-path:url(#SVGID_260_);}
	.st320{clip-path:url(#SVGID_262_);}
	.st321{fill:#4D4D4D;}
	.st322{clip-path:url(#SVGID_264_);fill:url(#SVGID_265_);}
	.st323{clip-path:url(#SVGID_264_);}
	.st324{clip-path:url(#SVGID_264_);fill:url(#SVGID_266_);}
	.st325{clip-path:url(#SVGID_264_);fill:url(#SVGID_267_);}
	.st326{clip-path:url(#SVGID_264_);fill:url(#SVGID_268_);}
	.st327{clip-path:url(#SVGID_270_);}
	.st328{fill:url(#SVGID_271_);}
	.st329{fill:url(#SVGID_272_);}
	.st330{fill:url(#SVGID_273_);}
	.st331{fill:url(#SVGID_274_);}
	.st332{clip-path:url(#SVGID_276_);fill:url(#SVGID_277_);}
	.st333{clip-path:url(#SVGID_276_);}
	.st334{clip-path:url(#SVGID_276_);fill:url(#SVGID_278_);}
	.st335{clip-path:url(#SVGID_276_);fill:url(#SVGID_279_);}
	.st336{clip-path:url(#SVGID_276_);fill:url(#SVGID_280_);}
	.st337{clip-path:url(#SVGID_282_);}
	.st338{fill:url(#SVGID_283_);}
	.st339{fill:url(#SVGID_284_);}
	.st340{fill:url(#SVGID_285_);}
	.st341{fill:url(#SVGID_286_);}
	.st342{fill:#43B5A8;}
	.st343{clip-path:url(#SVGID_288_);}
	.st344{fill:#83B31E;}
	.st345{clip-path:url(#SVGID_290_);}
	.st346{fill:none;stroke:#F2F2F2;stroke-width:2;stroke-linecap:round;stroke-miterlimit:10;}
	.st347{fill:none;stroke:#190AFF;stroke-width:2;stroke-linecap:round;stroke-linejoin:round;stroke-miterlimit:10;}
	
		.st348{opacity:0.74;fill:#F2F2F2;stroke:#190AFF;stroke-width:2;stroke-linecap:round;stroke-linejoin:round;stroke-miterlimit:10;}
	.st349{fill:#F2F2F2;stroke:#F2F2F2;stroke-width:2;stroke-linecap:round;stroke-miterlimit:10;}
	.st350{fill:none;stroke:#190AFF;stroke-width:2;stroke-linecap:round;stroke-linejoin:round;}
	.st351{fill:none;stroke:#190AFF;stroke-width:2;stroke-linecap:round;stroke-linejoin:round;stroke-dasharray:11.5036,11.5036;}
	.st352{fill:none;stroke:#D37676;stroke-width:3;stroke-miterlimit:10;}
	.st353{fill:#282828;}
	.st354{fill:#666565;}
	.st355{fill:none;stroke:#FFFFFF;stroke-width:3;stroke-miterlimit:10;}
	.st356{fill:none;stroke:#F4E1E1;stroke-width:3;stroke-miterlimit:10;}
	.st357{fill:#BF9797;}
	.st358{fill:none;stroke:#993C3C;stroke-width:3;stroke-miterlimit:10;}
	.st359{fill:#993C3C;}
	.st360{fill:#6B5D5D;}
	.st361{fill:#D3BABA;}
	.st362{fill:none;stroke:#B76A6A;stroke-width:3;stroke-miterlimit:10;}
	.st363{fill:none;stroke:#333333;stroke-width:3;stroke-miterlimit:10;}
	.st364{fill:none;stroke:#D36666;stroke-width:3;stroke-linejoin:round;stroke-miterlimit:10;}
	.st365{fill:#D36666;}
</style>
<g>
	<rect x="-500" y="-153.1" class="st5" width="884.3" height="859.9"/>
</g>
<g>
	<path d="M12.8,44.8c-1.2,0.7-2.6,1.1-4,1.1c-1.5,0-2.9-0.4-4-1.1C2.3,46,0,48.5,0,53.1V54h17.5v-0.9C17.5,48.5,15.3,46,12.8,44.8z"
		/>
	<path d="M49.2,44.8c-1.2,0.7-2.6,1.1-4,1.1c-1.5,0-2.9-0.4-4-1.1c-2.5,1.2-4.7,3.7-4.7,8.4V54H54v-0.9C54,48.5,51.7,46,49.2,44.8z"
		/>
	<path d="M43.6,33.7c-0.1,0.1-0.3,0.1-0.4,0.2C43,34,42.9,34,42.8,34.1c-0.1,0.1-0.2,0.1-0.3,0.2c-0.2,0.2-0.4,0.3-0.6,0.5
		c0,0,0,0,0,0c-0.2,0.2-0.4,0.4-0.5,0.7c0,0,0,0.1-0.1,0.1c-0.1,0.2-0.3,0.5-0.4,0.7c0,0,0,0,0,0.1c-0.2,0.6-0.4,1.2-0.4,1.8
		c0,2.6,2.1,4.8,4.8,4.8c2.6,0,4.8-2.1,4.8-4.8c0-0.6-0.1-1.3-0.4-1.8c0,0,0,0,0,0c-0.1-0.3-0.3-0.5-0.4-0.8c0,0,0,0,0,0
		c-0.2-0.2-0.4-0.5-0.6-0.7c0,0,0,0,0,0c-0.2-0.2-0.4-0.3-0.6-0.5c-0.1-0.1-0.2-0.1-0.3-0.2c-0.1-0.1-0.3-0.2-0.4-0.2
		c-0.1-0.1-0.2-0.1-0.4-0.2c-0.5-0.2-1.1-0.3-1.7-0.3C44.6,33.4,44.1,33.5,43.6,33.7z"/>
	<path d="M31,44.8c-1.2,0.7-2.6,1.2-4,1.2c-1.5,0-2.8-0.4-4-1.1c-2.4,1.2-4.7,3.7-4.7,8.4V54h17.5v-0.9C35.8,48.5,33.5,46,31,44.8z"
		/>
	<path d="M8.8,42.9c2.6,0,4.8-2.1,4.8-4.8c0-0.6-0.1-1.3-0.4-1.8c0,0,0,0,0,0c-0.1-0.3-0.2-0.5-0.4-0.7c0,0,0,0,0-0.1
		c-0.3-0.5-0.7-0.9-1.2-1.2c-0.1-0.1-0.2-0.1-0.3-0.2c-0.1-0.1-0.3-0.2-0.4-0.2c-0.1-0.1-0.3-0.1-0.4-0.2c-0.5-0.2-1.1-0.3-1.6-0.3
		c-0.6,0-1.1,0.1-1.6,0.3c-0.1,0-0.3,0.1-0.4,0.2C6.6,34,6.5,34,6.3,34.1c-0.1,0.1-0.2,0.1-0.3,0.2c-0.5,0.3-0.9,0.7-1.2,1.2
		c0,0,0,0,0,0.1c-0.2,0.2-0.3,0.5-0.4,0.7c0,0,0,0,0,0C4.2,36.9,4,37.5,4,38.2C4,40.8,6.2,42.9,8.8,42.9z"/>
	<path d="M10.3,30.6v-4.5h15.2v4.5c0.5-0.1,1-0.1,1.5-0.1c0.5,0,1,0.1,1.5,0.1v-4.5h15.2v4.5c0.5-0.1,1-0.1,1.4-0.1
		c0.5,0,1.1,0.1,1.6,0.2v-7.5H28.5v-5.2C32.8,17.2,36,13.5,36,9c0-5-4.1-9-9-9s-9,4.1-9,9c0,4.5,3.3,8.2,7.6,8.9v5.2H7.3v7.5
		c0.5-0.1,1-0.1,1.5-0.1C9.3,30.4,9.8,30.5,10.3,30.6z M24.2,13.9l-2.1-2.1L24.9,9l-2.8-2.8l2.1-2.1L27,6.9l2.8-2.8l2.1,2.1L29.1,9
		l2.8,2.8l-2.1,2.1L27,11.2L24.2,13.9z"/>
	<path d="M31,35.6c0,0-0.1-0.1-0.1-0.1c-0.1-0.2-0.3-0.4-0.4-0.5c-0.1-0.2-0.3-0.3-0.5-0.4c-0.1-0.1-0.1-0.1-0.2-0.2
		c-0.2-0.1-0.3-0.2-0.5-0.3c0,0-0.1-0.1-0.1-0.1c-0.2-0.1-0.4-0.2-0.6-0.2c-0.5-0.2-1-0.3-1.5-0.3c-0.5,0-1,0.1-1.5,0.3
		c-0.2,0.1-0.4,0.2-0.6,0.3c0,0,0,0-0.1,0c-0.5,0.3-1,0.7-1.4,1.1c-0.1,0.1-0.2,0.2-0.3,0.3c-0.1,0.1-0.1,0.2-0.2,0.3
		c-0.1,0.2-0.2,0.3-0.3,0.5c0,0.1-0.1,0.1-0.1,0.2c-0.1,0.2-0.2,0.5-0.2,0.8c0,0,0,0,0,0.1c-0.1,0.3-0.1,0.6-0.1,0.9
		c0,2.6,2.1,4.8,4.8,4.8s4.8-2.1,4.8-4.8c0-0.6-0.1-1.2-0.4-1.8c0,0,0-0.1,0-0.1C31.3,36,31.1,35.8,31,35.6z"/>
</g>
</svg>
