<svg id="Layer_1" data-name="Layer 1" xmlns="http://www.w3.org/2000/svg" viewBox="0 0 54 54"><defs><style>.cls-1{fill:#333;}</style></defs><path class="cls-1" d="M27,54A27,27,0,1,0,0,27,27,27,0,0,0,27,54ZM9.4,40.3a35.2,35.2,0,0,1,7.9-1.9,41.1,41.1,0,0,0,1.6,6.7A19.5,19.5,0,0,0,20,48,22.8,22.8,0,0,1,9.4,40.3ZM4.9,27a21.6,21.6,0,0,1,2-9.1,38.9,38.9,0,0,0,9.7,2.6c-.1,2.1-.2,4.3-.2,6.5s.1,4.4.2,6.5a38.9,38.9,0,0,0-9.7,2.6A21.6,21.6,0,0,1,4.9,27ZM27,4.9c.5,0,2.1,1.4,3.5,5.5.5,1.7,1,3.7,1.4,5.8H22.1c.4-2.1.9-4.1,1.4-5.8C24.9,6.3,26.5,4.9,27,4.9Zm0,16.4,5.5-.2c.1,1.9.2,3.9.2,5.9s-.1,4-.2,5.9L27,32.7l-5.5.2c-.1-1.9-.2-3.9-.2-5.9s.1-4,.2-5.9ZM49.1,27a21.6,21.6,0,0,1-2,9.1,38.9,38.9,0,0,0-9.7-2.6c.1-2.1.2-4.3.2-6.5s-.1-4.4-.2-6.5a38.9,38.9,0,0,0,9.7-2.6A21.6,21.6,0,0,1,49.1,27ZM27,49.1c-.5,0-2.1-1.4-3.5-5.5-.5-1.7-1-3.7-1.4-5.8h9.8c-.4,2.1-.9,4.1-1.4,5.8C29.1,47.7,27.5,49.1,27,49.1ZM34,48a19.5,19.5,0,0,0,1.1-2.9,41.1,41.1,0,0,0,1.6-6.7,35.2,35.2,0,0,1,7.9,1.9A22.8,22.8,0,0,1,34,48ZM44.6,13.7a35.2,35.2,0,0,1-7.9,1.9,41.1,41.1,0,0,0-1.6-6.7A19.5,19.5,0,0,0,34,6,22.8,22.8,0,0,1,44.6,13.7ZM20,6a19.5,19.5,0,0,0-1.1,2.9,41.1,41.1,0,0,0-1.6,6.7,35.2,35.2,0,0,1-7.9-1.9A22.8,22.8,0,0,1,20,6Z"/></svg>