<svg id="Layer_1" data-name="Layer 1" xmlns="http://www.w3.org/2000/svg" viewBox="0 0 67.3 54"><defs><style>.cls-1{fill:#333;}</style></defs><path class="cls-1" d="M23.8,15.2H8.5v3.6H0V35.2H8.5v3.6h3.8V54H23.8V38.8s4.8,0,14,4.9A123,123,0,0,1,54,54V0A145.6,145.6,0,0,1,38.1,10,49.9,49.9,0,0,1,23.8,15.2ZM8.3,31.2H4V22.8H8.3ZM19.8,50H16.3V38.9h3.5ZM12.5,19.2H23.7V34.8H12.5ZM50,7.6V46.3c-2.8-1.8-6.3-4-10.3-6.1a52.6,52.6,0,0,0-11.9-4.8v-17A59.8,59.8,0,0,0,40,13.5C43.6,11.6,47.1,9.5,50,7.6Z"/><rect class="cls-1" x="59.6" y="24" width="7.7" height="4"/><rect class="cls-1" x="55.4" y="12.3" width="7.7" height="4" transform="translate(7.2 46.1) rotate(-45)"/><rect class="cls-1" x="57.3" y="33.8" width="4" height="7.68" transform="translate(-9.2 52.9) rotate(-45)"/></svg>