<svg id="Layer_1" data-name="Layer 1" xmlns="http://www.w3.org/2000/svg" viewBox="0 0 52.9 54"><defs><style>.cls-1{fill:#333;}</style></defs><path class="cls-1" d="M52.9,11.2V0H37.2V5.7H15.8V0H0V11.2H5.9v1.1H3.6v3.9H5.9V37.8H0V49H5.9v1.1H3.6V54h8.5V50.1H9.8V49h6V46.8H37.2V49h5.9v1.1H40.8V54h8.5V50.1H47V49h5.9V37.8H47V16.2h2.3V12.3H47V11.2ZM41.1,3.9H49V7.3H41.1Zm-14.6,27a4.7,4.7,0,1,1,4.6-4.7A4.7,4.7,0,0,1,26.5,30.9ZM3.9,3.9h7.9V7.3H3.9Zm5.9,8.4V11.2h6V9.6h8.7V18a8.2,8.2,0,0,0-6.1,5.6H9.8V16.2h2.3V12.3Zm2,32.8H3.9V41.7h7.9Zm-2-7.3V27.5H18a8.6,8.6,0,0,0,6.5,7v8.4H15.8V37.8ZM49,45.1H41.1V41.7H49ZM37.2,37.8v5.1H28.4V34.5a8.4,8.4,0,0,0,6.5-7h8.2V37.8Zm5.9-25.5H40.8v3.9h2.3v7.4H34.6A8.6,8.6,0,0,0,28.4,18V9.6h8.8v1.6h5.9Z"/></svg>