<svg id="Layer_1" data-name="Layer 1" xmlns="http://www.w3.org/2000/svg" viewBox="0 0 48.1 54"><defs><style>.cls-1{fill:#333;}</style></defs><path class="cls-1" d="M46.5,5.3h0L31.3.7,16.7,5.1,1.8.6h0L0,0V48.1l16.7,5.2L31.3,49l12.4,3.7h0L48.1,54V5.7ZM22.4,36.2l-.6-6.1,2.5-.9H43.7v3.6ZM31.1,20H43.7v4.8H31.8ZM43.7,9v6.6H30.4L29,6l2.3-.7Zm-19-1.8,2.7,17.6H23.5l-7.4,2.7L12,8.2l4.7,1.4ZM4.4,5.9l2.8.9,4.7,22.1L4.4,31.6V5.9Zm0,39V36.2l13.1-4.6,1.7,16.5-2.5.7Zm19,1.9-.6-6.2L32.4,39v5.8l-1.1-.4Zm13.4-.7V38.3l6.9-1.1V48.1Z"/></svg>