<svg id="Layer_1" data-name="Layer 1" xmlns="http://www.w3.org/2000/svg" viewBox="0 0 54 54"><defs><style>.cls-1{fill:#333;}</style></defs><polygon class="cls-1" points="4 4 17 4 17 0 0 0 0 17 4 17 4 4"/><polygon class="cls-1" points="4 37 0 37 0 54 17 54 17 50 4 50 4 37"/><polygon class="cls-1" points="50 50 37 50 37 54 54 54 54 37 50 37 50 50"/><polygon class="cls-1" points="37 0 37 4 50 4 50 17 54 17 54 0 37 0"/><path class="cls-1" d="M43.9,29h4.2V25H43.9A17,17,0,0,0,29,10.1V5.9H25v4.2A17,17,0,0,0,10.1,25H5.9v4h4.2A17,17,0,0,0,25,43.9v4.2h4V43.9A17,17,0,0,0,43.9,29Zm-30-2A13.1,13.1,0,1,1,27,40.1,13.1,13.1,0,0,1,13.9,27Z"/><path class="cls-1" d="M35.5,27A8.5,8.5,0,1,0,27,35.5,8.5,8.5,0,0,0,35.5,27Zm-13,0A4.5,4.5,0,1,1,27,31.5,4.5,4.5,0,0,1,22.5,27Z"/></svg>